<svg xmlns="http://www.w3.org/2000/svg" xmlns:xlink="http://www.w3.org/1999/xlink" viewBox="0,0,256,256" width="50px" height="50px"><g fill="#94d82d" fill-rule="nonzero" stroke="none" stroke-width="1" stroke-linecap="butt" stroke-linejoin="miter" stroke-miterlimit="10" stroke-dasharray="" stroke-dashoffset="0" font-family="none" font-weight="none" font-size="none" text-anchor="none" style="mix-blend-mode: normal"><g transform="scale(5.12,5.12)"><path d="M16,24v11h2v-11zM12,27v5h2v-5zM12,27v5h2v-5zM16,24v11h2v-11zM12,27v5h2v-5zM12,27v5h2v-5zM16,24v11h2v-11zM16,24v11h2v-11zM12,27v5h2v-5zM12,27v5h2v-5zM16,24v11h2v-11zM32,24v11h2v-11zM16,24v11h2v-11zM12,27v5h2v-5zM12,27v5h2v-5zM16,24v11h2v-11zM36,27v5h2v-5zM36,27v5h2v-5zM32,35h2v-11h-2zM16,35h2v-11h-2zM12,32h2v-5h-2zM48.62,19.21l-23,-17.95c-0.37,-0.28 -0.87,-0.28 -1.24,0l-23,17.95c-0.43,0.34 -0.51,0.97 -0.17,1.41c0.34,0.43 0.97,0.51 1.41,0.17l1.38,-1.08v26.29c0,0.55 0.45,1 1,1h40c0.55,0 1,-0.45 1,-1v-26.29l1.38,1.08c0.19,0.14 0.4,0.21 0.62,0.21c0.3,0 0.59,-0.13 0.79,-0.38c0.34,-0.44 0.26,-1.07 -0.17,-1.41zM40,33c0,0.55 -0.45,1 -1,1h-3v2c0,0.55 -0.45,1 -1,1h-4c-0.55,0 -1,-0.45 -1,-1v-5h-10v5c0,0.55 -0.45,1 -1,1h-4c-0.55,0 -1,-0.45 -1,-1v-2h-3c-0.55,0 -1,-0.45 -1,-1v-7c0,-0.55 0.45,-1 1,-1h3v-2c0,-0.55 0.45,-1 1,-1h4c0.55,0 1,0.45 1,1v5h10v-5c0,-0.55 0.45,-1 1,-1h4c0.55,0 1,0.45 1,1v2h3c0.55,0 1,0.45 1,1zM36,32h2v-5h-2zM32,35h2v-11h-2zM16,35h2v-11h-2zM12,32h2v-5h-2zM12,27v5h2v-5zM16,24v11h2v-11zM32,24v11h2v-11zM16,24v11h2v-11zM12,27v5h2v-5zM12,27v5h2v-5zM16,24v11h2v-11zM16,24v11h2v-11zM12,27v5h2v-5zM12,27v5h2v-5zM16,24v11h2v-11zM16,24v11h2v-11zM12,27v5h2v-5zM12,27v5h2v-5zM16,24v11h2v-11zM12,27v5h2v-5zM12,27v5h2v-5z"></path></g></g></svg>