<svg width="52" height="52" viewBox="0 0 52 52" fill="none" xmlns="http://www.w3.org/2000/svg">
<g id="logo-oficial">
<path id="Vector" fill-rule="evenodd" clip-rule="evenodd" d="M6.75804 0.0791348C4.94142 0.35576 3.62867 1.02226 2.32092 2.33176C0.954044 3.70038 0.328919 5.00726 0.0794187 7.01763C-0.000331283 7.66101 -0.0209561 14.5494 0.0217939 26.3301C0.0779189 41.7573 0.116919 44.7594 0.269919 45.3833C0.560169 46.5669 1.27842 47.7781 2.32054 48.8415C3.09254 49.6293 3.46767 49.8995 4.44554 50.3724C6.59692 51.4129 5.45354 51.3645 26.258 51.295C44.2095 51.235 44.5224 51.2299 45.383 50.9773C46.9932 50.5048 48.6033 49.454 49.5817 48.2374C49.8162 47.9458 50.2184 47.291 50.4757 46.7824C51.3793 44.9951 51.3328 46.1145 51.3593 25.5176C51.3858 4.84838 51.4464 6.34176 50.5038 4.40876C49.4867 2.32288 47.8198 0.93301 45.508 0.243135C44.803 0.0327598 43.6364 0.0182599 26.0705 0.00163495C15.7924 -0.00811505 7.10179 0.0267598 6.75804 0.0791348ZM13.883 4.20513C5.97417 4.27326 6.25692 4.24663 5.34929 5.01189C5.12454 5.20139 4.78704 5.61776 4.59929 5.93701L4.25804 6.51763L4.16429 17.8301C4.11267 24.052 4.08454 32.5458 4.10179 36.7051L4.13304 44.2676L4.43129 44.9275C4.60804 45.3188 4.97604 45.8091 5.33479 46.1316C6.47954 47.1609 5.05104 47.0973 26.0705 47.055L44.633 47.0176L45.1608 46.7356C45.9514 46.3131 46.5199 45.7625 46.8433 45.1059L47.133 44.5176L47.1105 25.618C47.0885 7.09001 47.0832 6.70776 46.8413 6.18051C46.5042 5.44563 45.8135 4.74564 45.1017 4.41676L44.508 4.14263H32.8205C26.3924 4.14263 17.8705 4.17076 13.883 4.20513ZM33.5705 10.6166C33.2673 10.7699 33.257 10.818 33.2228 12.2408L33.1875 13.7071L25.7228 13.6749L18.258 13.6426L18.1955 12.2051L18.133 10.7676L17.633 10.698C16.8822 10.5935 13.9058 10.7175 13.7268 10.8608C13.619 10.9469 13.5705 11.4078 13.5705 12.3454V13.7051H13.1248C12.5192 13.7051 12.1955 13.901 12.1955 14.2676C12.1955 14.6451 12.5218 14.8301 13.1873 14.8301H13.6955V16.2008C13.6955 17.4279 13.7208 17.5849 13.9373 17.7008C14.0752 17.7745 15.042 17.8301 16.1873 17.8301H18.1955V16.3301V14.8301L20.1018 14.8299C21.1502 14.8298 24.497 14.7925 27.5393 14.747L33.0705 14.6645V15.8566C33.0705 16.5124 33.1057 17.2246 33.1487 17.4395L33.2268 17.8301H35.2543C37.7858 17.8301 37.6955 17.8941 37.6955 16.1015V14.8301H38.3012C38.7547 14.8301 38.9655 14.7653 39.1408 14.5716C39.3548 14.335 39.3587 14.2845 39.1859 13.9779C39.0652 13.7634 38.8865 13.6391 38.69 13.6328C38.5212 13.6274 38.2003 13.6133 37.9768 13.6015L37.5705 13.5801V12.147C37.5705 10.8581 37.5462 10.7009 37.3288 10.5845C36.9765 10.396 33.9563 10.4219 33.5705 10.6166ZM30.1563 16.3264C29.5517 16.8574 29.4639 17.2544 29.5304 19.1585C29.5614 20.0435 29.5504 21.1193 29.5062 21.5489L29.4257 22.3301H27.6429C26.6625 22.3301 25.0075 22.2933 23.9654 22.2481L22.0705 22.1661L22.0698 19.9669C22.0694 18.7573 22.0118 17.5614 21.9418 17.3091C21.8704 17.052 21.6218 16.6815 21.3757 16.4654C20.8154 15.9735 19.948 15.9291 19.4292 16.3659C18.7562 16.9324 18.6954 17.2268 18.6968 19.9176C18.6983 22.9516 18.69 22.9293 20.6794 25.301L22.0705 26.9594V33.2193C22.0705 40.2901 22.0289 39.9811 23.0475 40.4743C23.5205 40.7033 23.656 40.7191 24.0723 40.5944C24.3362 40.5153 24.6969 40.2785 24.8738 40.0683L25.1955 39.686V36.4024C25.1955 33.2984 25.2089 33.1068 25.4409 32.8969C25.5758 32.7748 25.7727 32.708 25.8784 32.7485C26.0445 32.8124 26.0705 33.271 26.0705 36.1449C26.0705 39.7974 26.1107 40.0255 26.8164 40.3905C27.2414 40.6103 28.0553 40.6386 28.4732 40.4483C28.6324 40.3758 28.9022 40.1128 29.0728 39.8639L29.383 39.4113L29.4455 33.0723C29.507 26.8339 29.5122 26.7294 29.7699 26.5004C30.0727 26.2314 31.5928 24.292 32.1745 23.4326L32.5705 22.8476V19.8995V16.9515L32.16 16.5035C31.8358 16.1498 31.6297 16.042 31.1803 15.9914C30.6727 15.9341 30.5618 15.9704 30.1563 16.3264ZM24.6993 16.7713C23.7715 17.1883 23.3203 17.9321 23.321 19.0439C23.3218 20.3496 24.1617 21.2239 25.4918 21.3036C26.4484 21.361 27.2063 20.9994 27.7514 20.2254C28.4445 19.2414 28.1864 17.868 27.1508 17.0299C26.7654 16.7179 26.554 16.6473 25.9097 16.6151C25.4 16.5896 24.9839 16.6434 24.6993 16.7713Z" fill="#033F1B"/>
</g>
</svg>
