<svg width="108" height="111" viewBox="0 0 108 111" fill="none" xmlns="http://www.w3.org/2000/svg">
<g id="logo-ejercicios">
<path id="logo-ejercicios_2" d="M100.278 71.373L108 63.4365L100.278 55.5L81 75.3135L34.722 27.75L54 7.9365L46.278 0L38.556 7.9365L30.834 0L19.278 11.877L11.556 3.9405L3.834 11.877L11.556 19.8135L0 31.6905L7.722 39.627L0 47.5635L7.722 55.5L27 35.6865L73.278 83.25L54 103.063L61.722 111L69.444 103.063L77.166 111L88.722 99.123L96.444 107.06L104.166 99.123L96.444 91.1865L108 79.3095L100.278 71.373Z" fill="black"/>
</g>
</svg>
