<svg width="108" height="111" viewBox="0 0 108 111" fill="none" xmlns="http://www.w3.org/2000/svg">
<g id="Vector">
<path id="Vector_2" d="M55.0702 0.000748906C49.1889 0.025246 43.3763 0.524986 38.3417 1.2795L40.6759 10.4022C50.2645 8.30036 60.2878 8.97648 70.357 10.4267L72.1419 1.62246C66.8785 0.441696 60.9515 -0.0212985 55.0702 0.000748906ZM34.8404 3.98887C32.4833 4.6307 30.172 5.39256 27.9751 6.26955C26.0986 7.01671 24.9315 8.62127 23.6042 10.7109C22.2769 12.798 20.9039 15.4682 19.5079 18.5573C16.6931 24.7306 13.7571 32.5451 11.0681 40.2617C8.47535 47.7088 6.1297 55.0089 4.38362 60.5943C5.77271 59.4184 7.48903 58.659 9.32207 58.708C10.908 53.7106 12.8348 47.8068 14.9287 41.805C17.5902 34.1619 20.5148 26.4209 23.2152 20.4926C24.5653 17.5039 25.8698 14.9783 27.014 13.1973C28.1582 11.4066 29.2795 10.4488 29.394 10.3998C31.4764 9.57421 33.6504 8.86379 35.8931 8.26361L34.8404 3.98887ZM75.6204 5.27007L74.7279 9.6379C77.3138 10.6129 79.7624 11.7961 82.0509 13.1875C82.7145 13.5844 83.996 15.0518 85.3005 17.3569C86.582 19.6597 87.9779 22.7218 89.351 26.2739C92.1429 33.3535 94.9348 42.344 97.4292 51.1384C98.1386 53.6861 98.848 56.2093 99.5117 58.659C101.182 58.904 102.738 59.7614 103.974 60.9862C104.18 61.1822 104.363 61.3782 104.546 61.5987C103.562 57.8506 102.51 53.8821 101.365 49.8646C98.8709 40.9721 96.0332 31.8837 93.1498 24.5591C91.731 20.8845 90.2664 17.6754 88.8247 15.0763C87.3601 12.4894 85.9641 10.5026 84.1105 9.36108C81.433 7.73448 78.5953 6.37734 75.6204 5.27007ZM68.2516 43.3973L39.3487 43.6668L39.2342 43.6913C32.3003 44.4752 27.014 51.1629 26.0299 59.8594C27.4259 59.9329 28.799 60.0064 30.1491 60.0553C31.0187 53.2452 35.0464 48.6152 39.6461 48.0763L67.8626 47.8068C71.4325 48.4437 75.2542 52.3633 76.2383 59.7859C77.5884 59.7124 78.9615 59.6634 80.3574 59.5899C79.2361 50.4035 74.2931 44.4017 68.4118 43.4218L68.2516 43.3973ZM98.4361 63.0195C92.3717 63.3625 86.6049 63.7054 81.044 63.9749C84.6597 78.9181 84.4995 94.0083 84.4766 108.854C91.136 108.168 97.9784 107.359 105.073 106.453C105.21 106.428 105.576 106.281 106.102 105.203C106.629 104.15 107.132 102.411 107.453 100.255C108.116 95.9436 108.185 90.0888 107.613 84.283C107.018 78.5017 105.759 72.7693 104.02 68.7518C103.15 66.7431 102.166 65.1752 101.205 64.2444C100.221 63.3135 99.3972 62.9705 98.4361 63.0195ZM8.98109 63.1175C8.20074 63.142 7.52107 63.4849 6.71096 64.2933C5.78415 65.1997 4.81385 66.7676 3.96713 68.7763C2.27597 72.8183 1.06768 78.6241 0.46582 84.5034C-0.136039 90.3827 -0.145193 96.36 0.383436 100.794C0.646607 102.999 1.05853 104.836 1.50019 105.938C1.94415 107.065 2.31717 107.139 2.05171 107.09C9.00169 108.339 15.7709 109.245 22.46 109.882C21.1785 95.6251 21.659 80.5349 25.1832 64.2199C20.1258 63.9749 14.8601 63.6074 9.32436 63.142C9.20765 63.142 9.09323 63.1175 8.98109 63.1175ZM76.8332 64.1709C60.7226 64.9058 45.9851 65.1752 29.3482 64.4403C25.7096 80.8534 25.2519 95.8701 26.6249 110.25C44.429 111.622 61.7753 111.009 80.3574 109.245C80.3803 93.9103 80.5405 78.7711 76.8332 64.1709Z" fill="black"/>
</g>
</svg>
