<svg width="108" height="111" viewBox="0 0 108 111" fill="none" xmlns="http://www.w3.org/2000/svg">
<g id="Vector">
<path id="Vector_2" d="M97.2659 0L97.2599 106.658C98.8296 109.8 100.453 111.008 101.815 111C103.167 110.992 104.773 109.77 106.312 106.721L102.109 52.2449L102.06 51.5814L102.396 51.0525C107.226 43.5131 108.914 30.4875 107.536 19.4702C106.848 13.9613 105.405 8.97518 103.386 5.45038C101.693 2.49445 99.6724 0.608835 97.2663 0H97.2659ZM12.324 0.00111045L12.3204 18.6288L9.45532 18.6244V0.00221984H6.19223L6.19269 18.6252H3.32354V0.00221984H2.74524e-08V28.648C-0.000228081 31.8162 1.42112 33.573 3.65886 34.6592L4.58498 35.1093L4.56445 36.322C4.10823 59.7901 3.65726 83.258 3.20447 106.726C4.76473 109.832 6.36742 111.008 7.70185 111C9.03629 110.992 10.6376 109.785 12.178 106.718C11.6497 83.2557 11.122 59.7936 10.5947 36.3314L10.5673 35.1104L11.4964 34.6647C13.8514 33.5253 15.3832 31.5917 15.3832 28.6496V0.00111045H12.324ZM54.0193 10.8225C44.2791 10.8225 34.9378 15.5296 28.0504 23.9082C21.1631 32.2869 17.2938 43.6508 17.2938 55.5C17.2938 67.3492 21.1631 78.7131 28.0504 87.0917C34.9378 95.4704 44.2791 100.177 54.0193 100.177C63.7594 100.177 73.1007 95.4704 79.9881 87.0917C86.8754 78.7131 90.7447 67.3492 90.7447 55.5C90.7447 43.6508 86.8754 32.2869 79.9881 23.9082C73.1007 15.5296 63.7594 10.8225 54.0193 10.8225Z" fill="black"/>
</g>
</svg>
